<?xml version="1.0" encoding="UTF-8" standalone="no"?>
<svg width="80px" height="37px" viewBox="0 0 80 37" version="1.1" xmlns="http://www.w3.org/2000/svg" xmlns:xlink="http://www.w3.org/1999/xlink" xmlns:sketch="http://www.bohemiancoding.com/sketch/ns">
    <!-- Generator: Sketch 3.3.3 (12072) - http://www.bohemiancoding.com/sketch -->
    <title>WoltLogo</title>
    <desc>Created with Sketch.</desc>
    <defs></defs>
    <g id="Page-1" stroke="none" stroke-width="1" fill="none" fill-rule="evenodd" sketch:type="MSPage">
        <g id="Desktop" sketch:type="MSArtboardGroup" transform="translate(-60.000000, -30.000000)" fill="#000">
            <g id="WoltLogo" sketch:type="MSLayerGroup" transform="translate(60.000000, 30.000000)">
                <g id="Page-1" sketch:type="MSShapeGroup">
                    <g id="Home">
                        <path d="M79.3437802,7.11910894 C75.8618838,7.14964835 70.5224605,7.49544362 65.522592,7.86382525 C65.8499917,6.60121134 66.1464508,5.52358358 66.3595603,4.71031263 C66.5469391,4.14358386 66.500055,3.81289927 65.7500668,3.52961433 C65.0000786,3.24617043 63.687639,2.96272647 62.5625774,3.05720779 C62.1876626,3.10444849 61.9063576,3.19892974 61.765705,3.62393663 C61.3448529,4.94603875 60.9341037,6.53615603 60.553664,8.24143242 C59.641081,8.31221384 58.7726984,8.37981412 57.96888,8.44152918 C57.4064285,8.48876988 57.1251242,8.63049183 56.8908612,9.24446129 C56.6095562,10.0001527 56.4689037,11.1337694 56.562672,11.8894609 C56.6095562,12.408949 56.7970929,12.6451523 57.5939652,12.550671 C58.3071722,12.4472824 59.0296925,12.334032 59.7566337,12.2152146 C59.432391,14.0173581 59.1547172,15.8217286 58.9442908,17.4783327 C56.235904,22.0026196 52.8739805,26.4367199 51.7814386,26.4367199 C51.3127548,26.4367199 51.0314504,26.153276 51.0314504,24.3112085 C50.9845663,20.296548 51.6407861,14.5344604 52.3438901,10.236356 C53.468951,7.26083089 53.984519,5.65496675 54.2189391,2.91548584 C54.2658233,2.34875701 54.1251715,1.97083179 53.6564877,1.68754692 C52.7189628,1.12081809 50.8907979,0.695652174 49.7190101,0.695652174 C49.3439374,0.695652174 48.9690219,0.884614817 48.8752536,1.30962163 C48.197881,4.33206929 47.6329037,7.76504932 47.2221544,11.2363628 C45.6722943,12.4735272 44.0228257,13.4843499 42.5471596,13.9675725 C42.0784762,12.0311828 41.656519,11.3699727 40.578342,10.9920474 C39.3127863,10.5197999 36.4066018,10.236356 35.0940041,10.378078 C33.9691008,10.5197999 33.359765,10.8503255 32.6566609,12.1256641 C30.547191,16.1874062 30.266044,22.3275781 30.9222639,26.0587946 C31.1565267,27.4284555 31.5784839,28.2786283 32.2815879,28.7510349 C33.1253443,29.3177637 34.6253207,29.7900112 35.8439923,29.8844925 C36.9690535,29.9789738 37.7190417,29.8844925 38.7503346,28.8927568 C41.3752143,26.3422385 42.8284643,20.4855106 42.7346961,15.951362 C44.1336427,15.4815004 45.5794734,14.7713 46.9553725,13.72278 C46.5594623,17.8277863 46.3940257,21.8623292 46.5315214,25.2086218 C46.5784056,26.2949979 46.7659416,27.0034487 47.4690456,27.4756962 C48.5939492,28.2786283 50.0001572,28.7037942 51.2658706,28.7037942 C52.9484897,28.7037942 56.5026859,25.9993064 58.5439603,21.6948396 C58.5396988,21.7802545 58.5348049,21.867101 58.5314901,21.9496529 C58.3908376,25.6808694 61.8125892,27.4284555 64.2500904,27.1924113 C67.4375798,26.9089674 71.8438984,22.7525849 75.078272,18.4546396 C76.4375958,16.6598128 77.0000473,13.0230776 76.7656264,12.6451523 C76.6718581,12.5034303 76.4375958,12.5979117 76.0625224,13.0701592 C72.0781614,18.5491209 66.3126762,25.3031032 64.1094379,25.3031032 C63.2189551,25.3031032 63.1251868,24.2167272 63.1251868,23.1777508 C63.1251868,19.1853587 63.8693343,14.9084092 64.6785197,11.3265495 C69.4389162,10.3943021 74.3145496,9.25607263 78.9219805,8.15824431 C79.578201,8.01652237 80,7.54411576 80,7.30807158 C80,7.16634957 79.7188529,7.11910894 79.3437802,7.11910894 L79.3437802,7.11910894 L79.3437802,7.11910894 Z M36.7332968,26.4347826 C35.9555081,26.4347826 35.3607648,24.3222571 35.4980488,21.1768675 C35.6353329,18.031478 36.1843148,14.5573996 38.1973514,11.1304348 C38.0144601,13.2899158 38.8836174,15.1678217 40.3478261,15.3085303 C40.0274967,21.4116453 38.1515901,26.4347826 36.7332968,26.4347826 L36.7332968,26.4347826 L36.7332968,26.4347826 Z M27.8798083,1.23111409 C26.8040074,0.479850504 24.8860288,-0.0835576348 23.529502,0.0102119652 C23.2487761,0.0102119652 23.1084131,0.245031235 23.2019884,0.667705948 C23.9972209,4.37705997 24.4183098,7.42907805 24.4183098,13.3452589 C24.4183098,22.7832546 21.3777426,30.4367819 20.2082088,30.5307096 C19.459764,30.5776735 19.2258257,29.7324822 19.0388326,28.1829912 C18.4305932,22.689327 18.1032371,18.0408539 18.2436001,12.6409592 C18.2436001,12.0305872 18.0564495,11.7019983 17.4483676,11.7019983 C16.4659844,11.7019983 15.2030329,11.8427318 14.1738621,12.0775511 C13.5657802,12.2184426 13.2850543,12.5471896 13.0979037,13.1105978 C10.8710005,20.0903439 8.11415235,27.822935 5.25648237,33.2092307 C5.15534539,30.1621145 5.01167423,26.5273967 5.51987951,21.4684248 C5.98759847,16.6320963 6.59568042,12.5941535 8.13951534,7.10033106 C8.23293315,6.77174219 8.09272772,6.34906748 7.5312759,6.34906748 C5.42630421,6.34906748 3.46169544,6.81870609 2.05822344,7.71086122 C1.30977857,8.13337781 1.02921016,8.97856904 0.888847235,9.82376035 C-0.327474157,16.4913629 -0.233898852,26.5865363 0.79527193,34.3809552 C0.842059548,34.8973995 1.07584028,35.4138438 1.4501415,35.7425908 C2.15179875,36.3529628 3.64868849,36.8695652 4.72464696,36.8695652 C5.28594122,36.8695652 5.89402317,36.8695652 6.45547499,35.8834824 C8.44135089,32.3265632 10.9781238,27.0117411 13.2026639,20.8346499 C13.3430269,23.8178826 13.7203212,27.1298623 14.1270744,29.3567713 C14.5480058,31.6575259 16.0916832,33.5827278 19.2258257,33.3009446 C24.1375839,32.8314642 27.5524523,20.9050166 28.7218285,12.5941535 C29.2832803,8.60301635 29.3766981,4.84654038 28.9557667,2.96846052 C28.7686162,2.12326922 28.3944725,1.55986108 27.8798083,1.23111409 L27.8798083,1.23111409 L27.8798083,1.23111409 Z" id="WoltLogo"></path>
                    </g>
                </g>
            </g>
        </g>
    </g>
</svg>